<mxfile host="app.diagrams.net" agent="Mozilla/5.0 (Macintosh; Intel Mac OS X 10_15_7) AppleWebKit/537.36 (KHTML, like Gecko) Chrome/139.0.0.0 Safari/537.36" version="28.0.9">
  <diagram name="Page-1" id="PSw8_VhyB8MSAEIHlrKl">
    <mxGraphModel dx="1058" dy="1377" grid="1" gridSize="10" guides="1" tooltips="1" connect="1" arrows="1" fold="1" page="1" pageScale="1" pageWidth="850" pageHeight="1100" math="0" shadow="0">
      <root>
        <mxCell id="0" />
        <mxCell id="1" parent="0" />
        <mxCell id="0MJrxG6zpo3ziBz7e6kD-1" value="User" style="shape=umlActor;verticalLabelPosition=bottom;verticalAlign=top;html=1;outlineConnect=0;" parent="1" vertex="1">
          <mxGeometry x="40" y="30" width="30" height="60" as="geometry" />
        </mxCell>
        <mxCell id="0MJrxG6zpo3ziBz7e6kD-3" value="Income and Asset&amp;nbsp; Statement&lt;div&gt;21P-0969&lt;/div&gt;" style="strokeWidth=2;html=1;shape=mxgraph.flowchart.multi-document;whiteSpace=wrap;align=center;" parent="1" vertex="1">
          <mxGeometry x="40" y="240" width="130" height="100" as="geometry" />
        </mxCell>
        <mxCell id="0MJrxG6zpo3ziBz7e6kD-4" value="user entered data" style="shape=parallelogram;html=1;strokeWidth=2;perimeter=parallelogramPerimeter;whiteSpace=wrap;rounded=1;arcSize=12;size=0.23;" parent="1" vertex="1">
          <mxGeometry x="100" y="380" width="150" height="60" as="geometry" />
        </mxCell>
        <mxCell id="0MJrxG6zpo3ziBz7e6kD-5" value="PROD&lt;br&gt;db" style="strokeWidth=2;html=1;shape=mxgraph.flowchart.database;whiteSpace=wrap;" parent="1" vertex="1">
          <mxGeometry x="620" y="220" width="100" height="110" as="geometry" />
        </mxCell>
        <mxCell id="0MJrxG6zpo3ziBz7e6kD-7" value="VA Profile" style="shape=parallelogram;html=1;strokeWidth=2;perimeter=parallelogramPerimeter;whiteSpace=wrap;rounded=1;arcSize=12;size=0.23;" parent="1" vertex="1">
          <mxGeometry x="475" y="100" width="100" height="60" as="geometry" />
        </mxCell>
        <mxCell id="0MJrxG6zpo3ziBz7e6kD-8" value="login?" style="strokeWidth=2;html=1;shape=mxgraph.flowchart.decision;whiteSpace=wrap;" parent="1" vertex="1">
          <mxGeometry x="110" y="50" width="100" height="100" as="geometry" />
        </mxCell>
        <mxCell id="0MJrxG6zpo3ziBz7e6kD-10" value="Authentication" style="ellipse;shape=cloud;whiteSpace=wrap;html=1;" parent="1" vertex="1">
          <mxGeometry x="350" y="10" width="135" height="80" as="geometry" />
        </mxCell>
        <mxCell id="0MJrxG6zpo3ziBz7e6kD-11" value="" style="endArrow=classic;html=1;rounded=0;exitX=0.5;exitY=0;exitDx=0;exitDy=0;exitPerimeter=0;entryX=0.07;entryY=0.4;entryDx=0;entryDy=0;entryPerimeter=0;" parent="1" source="0MJrxG6zpo3ziBz7e6kD-8" target="0MJrxG6zpo3ziBz7e6kD-10" edge="1">
          <mxGeometry width="50" height="50" relative="1" as="geometry">
            <mxPoint x="400" y="340" as="sourcePoint" />
            <mxPoint x="450" y="290" as="targetPoint" />
          </mxGeometry>
        </mxCell>
        <mxCell id="0MJrxG6zpo3ziBz7e6kD-13" value="Yes" style="edgeLabel;html=1;align=center;verticalAlign=middle;resizable=0;points=[];" parent="0MJrxG6zpo3ziBz7e6kD-11" vertex="1" connectable="0">
          <mxGeometry x="0.0421" relative="1" as="geometry">
            <mxPoint as="offset" />
          </mxGeometry>
        </mxCell>
        <mxCell id="0MJrxG6zpo3ziBz7e6kD-12" value="In Progress Form?" style="strokeWidth=2;html=1;shape=mxgraph.flowchart.decision;whiteSpace=wrap;" parent="1" vertex="1">
          <mxGeometry x="640" y="30" width="120" height="110" as="geometry" />
        </mxCell>
        <mxCell id="0MJrxG6zpo3ziBz7e6kD-14" value="" style="endArrow=classic;html=1;rounded=0;exitX=0.88;exitY=0.25;exitDx=0;exitDy=0;exitPerimeter=0;entryX=0.5;entryY=0;entryDx=0;entryDy=0;entryPerimeter=0;" parent="1" source="0MJrxG6zpo3ziBz7e6kD-10" target="0MJrxG6zpo3ziBz7e6kD-12" edge="1">
          <mxGeometry width="50" height="50" relative="1" as="geometry">
            <mxPoint x="480" y="40" as="sourcePoint" />
            <mxPoint x="670" y="40" as="targetPoint" />
          </mxGeometry>
        </mxCell>
        <mxCell id="0MJrxG6zpo3ziBz7e6kD-15" value="Valid" style="edgeLabel;html=1;align=center;verticalAlign=middle;resizable=0;points=[];" parent="0MJrxG6zpo3ziBz7e6kD-14" vertex="1" connectable="0">
          <mxGeometry x="0.0421" relative="1" as="geometry">
            <mxPoint as="offset" />
          </mxGeometry>
        </mxCell>
        <mxCell id="0MJrxG6zpo3ziBz7e6kD-16" value="" style="endArrow=classic;html=1;rounded=0;exitX=1;exitY=0.5;exitDx=0;exitDy=0;exitPerimeter=0;entryX=1;entryY=0.15;entryDx=0;entryDy=0;entryPerimeter=0;" parent="1" source="0MJrxG6zpo3ziBz7e6kD-12" target="0MJrxG6zpo3ziBz7e6kD-5" edge="1">
          <mxGeometry width="50" height="50" relative="1" as="geometry">
            <mxPoint x="560" y="180" as="sourcePoint" />
            <mxPoint x="750" y="180" as="targetPoint" />
          </mxGeometry>
        </mxCell>
        <mxCell id="0MJrxG6zpo3ziBz7e6kD-17" value="Yes" style="edgeLabel;html=1;align=center;verticalAlign=middle;resizable=0;points=[];" parent="0MJrxG6zpo3ziBz7e6kD-16" vertex="1" connectable="0">
          <mxGeometry x="0.0421" relative="1" as="geometry">
            <mxPoint as="offset" />
          </mxGeometry>
        </mxCell>
        <mxCell id="0MJrxG6zpo3ziBz7e6kD-18" value="" style="endArrow=classic;html=1;rounded=0;exitX=0;exitY=0.5;exitDx=0;exitDy=0;exitPerimeter=0;entryX=1;entryY=0;entryDx=0;entryDy=0;" parent="1" source="0MJrxG6zpo3ziBz7e6kD-12" target="0MJrxG6zpo3ziBz7e6kD-7" edge="1">
          <mxGeometry width="50" height="50" relative="1" as="geometry">
            <mxPoint x="490" y="50" as="sourcePoint" />
            <mxPoint x="680" y="50" as="targetPoint" />
          </mxGeometry>
        </mxCell>
        <mxCell id="0MJrxG6zpo3ziBz7e6kD-19" value="No" style="edgeLabel;html=1;align=center;verticalAlign=middle;resizable=0;points=[];" parent="0MJrxG6zpo3ziBz7e6kD-18" vertex="1" connectable="0">
          <mxGeometry x="0.0421" relative="1" as="geometry">
            <mxPoint as="offset" />
          </mxGeometry>
        </mxCell>
        <mxCell id="0MJrxG6zpo3ziBz7e6kD-20" value="" style="endArrow=classic;html=1;rounded=0;exitX=0;exitY=0.25;exitDx=0;exitDy=0;entryX=0.5;entryY=0;entryDx=0;entryDy=0;entryPerimeter=0;" parent="1" source="0MJrxG6zpo3ziBz7e6kD-7" target="0MJrxG6zpo3ziBz7e6kD-24" edge="1">
          <mxGeometry width="50" height="50" relative="1" as="geometry">
            <mxPoint x="400" y="340" as="sourcePoint" />
            <mxPoint x="420" y="200" as="targetPoint" />
            <Array as="points">
              <mxPoint x="380" y="120" />
            </Array>
          </mxGeometry>
        </mxCell>
        <mxCell id="0MJrxG6zpo3ziBz7e6kD-21" value="Prefill" style="edgeLabel;html=1;align=center;verticalAlign=middle;resizable=0;points=[];" parent="0MJrxG6zpo3ziBz7e6kD-20" vertex="1" connectable="0">
          <mxGeometry x="0.158" relative="1" as="geometry">
            <mxPoint as="offset" />
          </mxGeometry>
        </mxCell>
        <mxCell id="0MJrxG6zpo3ziBz7e6kD-22" value="" style="endArrow=classic;html=1;rounded=0;exitX=0.5;exitY=1;exitDx=0;exitDy=0;exitPerimeter=0;" parent="1" source="0MJrxG6zpo3ziBz7e6kD-8" target="0MJrxG6zpo3ziBz7e6kD-3" edge="1">
          <mxGeometry width="50" height="50" relative="1" as="geometry">
            <mxPoint x="400" y="340" as="sourcePoint" />
            <mxPoint x="450" y="290" as="targetPoint" />
          </mxGeometry>
        </mxCell>
        <mxCell id="0MJrxG6zpo3ziBz7e6kD-23" value="No" style="edgeLabel;html=1;align=center;verticalAlign=middle;resizable=0;points=[];" parent="0MJrxG6zpo3ziBz7e6kD-22" vertex="1" connectable="0">
          <mxGeometry x="-0.0087" y="-3" relative="1" as="geometry">
            <mxPoint as="offset" />
          </mxGeometry>
        </mxCell>
        <mxCell id="0MJrxG6zpo3ziBz7e6kD-24" value="In Progress&lt;br&gt;API" style="strokeWidth=2;html=1;shape=mxgraph.flowchart.merge_or_storage;whiteSpace=wrap;" parent="1" vertex="1">
          <mxGeometry x="280" y="180" width="115" height="70" as="geometry" />
        </mxCell>
        <mxCell id="0MJrxG6zpo3ziBz7e6kD-31" value="" style="endArrow=classic;html=1;rounded=0;exitX=0;exitY=0.15;exitDx=0;exitDy=0;exitPerimeter=0;entryX=1;entryY=0;entryDx=0;entryDy=0;entryPerimeter=0;" parent="1" source="0MJrxG6zpo3ziBz7e6kD-5" target="0MJrxG6zpo3ziBz7e6kD-24" edge="1">
          <mxGeometry width="50" height="50" relative="1" as="geometry">
            <mxPoint x="400" y="370" as="sourcePoint" />
            <mxPoint x="400" y="190" as="targetPoint" />
          </mxGeometry>
        </mxCell>
        <mxCell id="0MJrxG6zpo3ziBz7e6kD-32" value="InProgress loaded" style="edgeLabel;html=1;align=center;verticalAlign=middle;resizable=0;points=[];" parent="0MJrxG6zpo3ziBz7e6kD-31" vertex="1" connectable="0">
          <mxGeometry x="-0.1984" y="2" relative="1" as="geometry">
            <mxPoint as="offset" />
          </mxGeometry>
        </mxCell>
        <mxCell id="0MJrxG6zpo3ziBz7e6kD-35" value="" style="endArrow=classic;html=1;rounded=0;exitX=-0.026;exitY=0.114;exitDx=0;exitDy=0;exitPerimeter=0;entryX=0.98;entryY=0.02;entryDx=0;entryDy=0;entryPerimeter=0;" parent="1" source="0MJrxG6zpo3ziBz7e6kD-24" target="0MJrxG6zpo3ziBz7e6kD-3" edge="1">
          <mxGeometry width="50" height="50" relative="1" as="geometry">
            <mxPoint x="400" y="440" as="sourcePoint" />
            <mxPoint x="450" y="390" as="targetPoint" />
          </mxGeometry>
        </mxCell>
        <mxCell id="0MJrxG6zpo3ziBz7e6kD-36" value="InProgress GET" style="edgeLabel;html=1;align=center;verticalAlign=middle;resizable=0;points=[];" parent="0MJrxG6zpo3ziBz7e6kD-35" vertex="1" connectable="0">
          <mxGeometry x="0.0344" y="1" relative="1" as="geometry">
            <mxPoint as="offset" />
          </mxGeometry>
        </mxCell>
        <mxCell id="0MJrxG6zpo3ziBz7e6kD-37" value="" style="endArrow=classic;html=1;rounded=0;exitX=1;exitY=0;exitDx=0;exitDy=0;entryX=0.5;entryY=1;entryDx=0;entryDy=0;entryPerimeter=0;" parent="1" source="0MJrxG6zpo3ziBz7e6kD-4" target="0MJrxG6zpo3ziBz7e6kD-24" edge="1">
          <mxGeometry width="50" height="50" relative="1" as="geometry">
            <mxPoint x="297" y="253" as="sourcePoint" />
            <mxPoint x="350" y="430" as="targetPoint" />
          </mxGeometry>
        </mxCell>
        <mxCell id="0MJrxG6zpo3ziBz7e6kD-38" value="Authenticated&lt;br&gt;InProgress POST" style="edgeLabel;html=1;align=center;verticalAlign=middle;resizable=0;points=[];" parent="0MJrxG6zpo3ziBz7e6kD-37" vertex="1" connectable="0">
          <mxGeometry x="0.0344" y="1" relative="1" as="geometry">
            <mxPoint as="offset" />
          </mxGeometry>
        </mxCell>
        <mxCell id="0MJrxG6zpo3ziBz7e6kD-39" value="" style="endArrow=classic;startArrow=classic;html=1;rounded=0;entryX=0.5;entryY=0.88;entryDx=0;entryDy=0;entryPerimeter=0;exitX=0.25;exitY=0;exitDx=0;exitDy=0;" parent="1" source="0MJrxG6zpo3ziBz7e6kD-4" target="0MJrxG6zpo3ziBz7e6kD-3" edge="1">
          <mxGeometry width="50" height="50" relative="1" as="geometry">
            <mxPoint x="400" y="430" as="sourcePoint" />
            <mxPoint x="450" y="380" as="targetPoint" />
          </mxGeometry>
        </mxCell>
        <mxCell id="0MJrxG6zpo3ziBz7e6kD-63" value="Valid data entered" style="edgeLabel;html=1;align=center;verticalAlign=middle;resizable=0;points=[];" parent="0MJrxG6zpo3ziBz7e6kD-39" vertex="1" connectable="0">
          <mxGeometry x="0.2394" relative="1" as="geometry">
            <mxPoint as="offset" />
          </mxGeometry>
        </mxCell>
        <mxCell id="0MJrxG6zpo3ziBz7e6kD-40" value="Submit?" style="strokeWidth=2;html=1;shape=mxgraph.flowchart.decision;whiteSpace=wrap;" parent="1" vertex="1">
          <mxGeometry x="95" y="510" width="100" height="100" as="geometry" />
        </mxCell>
        <mxCell id="0MJrxG6zpo3ziBz7e6kD-41" value="" style="endArrow=classic;html=1;rounded=0;exitX=0.739;exitY=0.571;exitDx=0;exitDy=0;exitPerimeter=0;entryX=0;entryY=0.5;entryDx=0;entryDy=0;entryPerimeter=0;" parent="1" source="0MJrxG6zpo3ziBz7e6kD-24" target="0MJrxG6zpo3ziBz7e6kD-5" edge="1">
          <mxGeometry width="50" height="50" relative="1" as="geometry">
            <mxPoint x="400" y="360" as="sourcePoint" />
            <mxPoint x="450" y="310" as="targetPoint" />
          </mxGeometry>
        </mxCell>
        <mxCell id="0MJrxG6zpo3ziBz7e6kD-42" value="InProgress update" style="edgeLabel;html=1;align=center;verticalAlign=middle;resizable=0;points=[];" parent="0MJrxG6zpo3ziBz7e6kD-41" vertex="1" connectable="0">
          <mxGeometry x="-0.0682" y="2" relative="1" as="geometry">
            <mxPoint as="offset" />
          </mxGeometry>
        </mxCell>
        <mxCell id="0MJrxG6zpo3ziBz7e6kD-43" value="" style="endArrow=classic;html=1;rounded=0;exitX=0.25;exitY=1;exitDx=0;exitDy=0;entryX=0.5;entryY=0;entryDx=0;entryDy=0;entryPerimeter=0;" parent="1" source="0MJrxG6zpo3ziBz7e6kD-4" target="0MJrxG6zpo3ziBz7e6kD-40" edge="1">
          <mxGeometry width="50" height="50" relative="1" as="geometry">
            <mxPoint x="400" y="630" as="sourcePoint" />
            <mxPoint x="450" y="580" as="targetPoint" />
          </mxGeometry>
        </mxCell>
        <mxCell id="0MJrxG6zpo3ziBz7e6kD-64" value="Form completed" style="edgeLabel;html=1;align=center;verticalAlign=middle;resizable=0;points=[];" parent="0MJrxG6zpo3ziBz7e6kD-43" vertex="1" connectable="0">
          <mxGeometry x="-0.1245" y="2" relative="1" as="geometry">
            <mxPoint as="offset" />
          </mxGeometry>
        </mxCell>
        <mxCell id="0MJrxG6zpo3ziBz7e6kD-44" value="" style="endArrow=classic;html=1;rounded=0;exitX=0.5;exitY=1;exitDx=0;exitDy=0;exitPerimeter=0;entryX=0.5;entryY=0;entryDx=0;entryDy=0;entryPerimeter=0;" parent="1" source="0MJrxG6zpo3ziBz7e6kD-40" target="0MJrxG6zpo3ziBz7e6kD-46" edge="1">
          <mxGeometry width="50" height="50" relative="1" as="geometry">
            <mxPoint x="400" y="500" as="sourcePoint" />
            <mxPoint x="330" y="560" as="targetPoint" />
          </mxGeometry>
        </mxCell>
        <mxCell id="0MJrxG6zpo3ziBz7e6kD-45" value="Yes" style="edgeLabel;html=1;align=center;verticalAlign=middle;resizable=0;points=[];" parent="0MJrxG6zpo3ziBz7e6kD-44" vertex="1" connectable="0">
          <mxGeometry x="0.0035" y="2" relative="1" as="geometry">
            <mxPoint as="offset" />
          </mxGeometry>
        </mxCell>
        <mxCell id="0MJrxG6zpo3ziBz7e6kD-46" value="Income and&lt;div&gt;Assets API&lt;div&gt;&lt;br&gt;&lt;/div&gt;&lt;/div&gt;&lt;div&gt;&lt;br&gt;&lt;/div&gt;" style="strokeWidth=2;html=1;shape=mxgraph.flowchart.merge_or_storage;whiteSpace=wrap;" parent="1" vertex="1">
          <mxGeometry x="77.5" y="677.15" width="135" height="80" as="geometry" />
        </mxCell>
        <mxCell id="0MJrxG6zpo3ziBz7e6kD-47" value="" style="endArrow=classic;html=1;rounded=0;entryX=0;entryY=0.85;entryDx=0;entryDy=0;entryPerimeter=0;exitX=1;exitY=0;exitDx=0;exitDy=0;exitPerimeter=0;" parent="1" source="0MJrxG6zpo3ziBz7e6kD-59" target="0MJrxG6zpo3ziBz7e6kD-5" edge="1">
          <mxGeometry width="50" height="50" relative="1" as="geometry">
            <mxPoint x="690" y="510" as="sourcePoint" />
            <mxPoint x="450" y="380" as="targetPoint" />
          </mxGeometry>
        </mxCell>
        <mxCell id="0MJrxG6zpo3ziBz7e6kD-48" value="SavedClaim created&lt;br&gt;form data serialized/encrypted" style="edgeLabel;html=1;align=center;verticalAlign=middle;resizable=0;points=[];" parent="0MJrxG6zpo3ziBz7e6kD-47" vertex="1" connectable="0">
          <mxGeometry x="-0.1333" relative="1" as="geometry">
            <mxPoint as="offset" />
          </mxGeometry>
        </mxCell>
        <mxCell id="0MJrxG6zpo3ziBz7e6kD-49" value="" style="endArrow=classic;html=1;rounded=0;exitX=0.5;exitY=1;exitDx=0;exitDy=0;exitPerimeter=0;entryX=0.5;entryY=0;entryDx=0;entryDy=0;" parent="1" source="0MJrxG6zpo3ziBz7e6kD-59" target="0MJrxG6zpo3ziBz7e6kD-67" edge="1">
          <mxGeometry width="50" height="50" relative="1" as="geometry">
            <mxPoint x="770" y="827.15" as="sourcePoint" />
            <mxPoint x="870" y="737.15" as="targetPoint" />
          </mxGeometry>
        </mxCell>
        <mxCell id="0MJrxG6zpo3ziBz7e6kD-50" value="Sidekiq Process started" style="edgeLabel;html=1;align=center;verticalAlign=middle;resizable=0;points=[];" parent="0MJrxG6zpo3ziBz7e6kD-49" vertex="1" connectable="0">
          <mxGeometry x="0.1992" y="1" relative="1" as="geometry">
            <mxPoint y="-1" as="offset" />
          </mxGeometry>
        </mxCell>
        <mxCell id="0MJrxG6zpo3ziBz7e6kD-52" value="Valid form?" style="strokeWidth=2;html=1;shape=mxgraph.flowchart.decision;whiteSpace=wrap;" parent="1" vertex="1">
          <mxGeometry x="100" y="830" width="100" height="100" as="geometry" />
        </mxCell>
        <mxCell id="0MJrxG6zpo3ziBz7e6kD-53" value="" style="endArrow=classic;html=1;rounded=0;exitX=0.5;exitY=1;exitDx=0;exitDy=0;exitPerimeter=0;" parent="1" source="0MJrxG6zpo3ziBz7e6kD-46" target="0MJrxG6zpo3ziBz7e6kD-52" edge="1">
          <mxGeometry width="50" height="50" relative="1" as="geometry">
            <mxPoint x="400" y="530" as="sourcePoint" />
            <mxPoint x="450" y="480" as="targetPoint" />
            <Array as="points" />
          </mxGeometry>
        </mxCell>
        <mxCell id="0MJrxG6zpo3ziBz7e6kD-62" value="SavedClaim POST" style="edgeLabel;html=1;align=center;verticalAlign=middle;resizable=0;points=[];" parent="0MJrxG6zpo3ziBz7e6kD-53" vertex="1" connectable="0">
          <mxGeometry x="-0.0684" relative="1" as="geometry">
            <mxPoint x="1" as="offset" />
          </mxGeometry>
        </mxCell>
        <mxCell id="0MJrxG6zpo3ziBz7e6kD-54" value="" style="endArrow=classic;html=1;rounded=0;exitX=1;exitY=0.5;exitDx=0;exitDy=0;exitPerimeter=0;entryX=0;entryY=0.5;entryDx=0;entryDy=0;entryPerimeter=0;" parent="1" source="0MJrxG6zpo3ziBz7e6kD-52" target="0MJrxG6zpo3ziBz7e6kD-59" edge="1">
          <mxGeometry width="50" height="50" relative="1" as="geometry">
            <mxPoint x="400" y="530" as="sourcePoint" />
            <mxPoint x="310" y="480" as="targetPoint" />
            <Array as="points">
              <mxPoint x="280" y="417" />
            </Array>
          </mxGeometry>
        </mxCell>
        <mxCell id="0MJrxG6zpo3ziBz7e6kD-55" value="Yes" style="edgeLabel;html=1;align=center;verticalAlign=middle;resizable=0;points=[];" parent="0MJrxG6zpo3ziBz7e6kD-54" vertex="1" connectable="0">
          <mxGeometry x="0.08" y="2" relative="1" as="geometry">
            <mxPoint as="offset" />
          </mxGeometry>
        </mxCell>
        <mxCell id="0MJrxG6zpo3ziBz7e6kD-57" value="" style="endArrow=classic;html=1;rounded=0;entryX=0.192;entryY=1;entryDx=0;entryDy=0;entryPerimeter=0;exitX=0;exitY=0.5;exitDx=0;exitDy=0;exitPerimeter=0;" parent="1" source="0MJrxG6zpo3ziBz7e6kD-52" target="0MJrxG6zpo3ziBz7e6kD-3" edge="1">
          <mxGeometry width="50" height="50" relative="1" as="geometry">
            <mxPoint x="100" y="840" as="sourcePoint" />
            <mxPoint x="220" y="440" as="targetPoint" />
            <Array as="points">
              <mxPoint x="65" y="850" />
            </Array>
          </mxGeometry>
        </mxCell>
        <mxCell id="0MJrxG6zpo3ziBz7e6kD-58" value="No" style="edgeLabel;html=1;align=center;verticalAlign=middle;resizable=0;points=[];" parent="0MJrxG6zpo3ziBz7e6kD-57" vertex="1" connectable="0">
          <mxGeometry x="0.0098" y="-1" relative="1" as="geometry">
            <mxPoint as="offset" />
          </mxGeometry>
        </mxCell>
        <mxCell id="1pgXUVBiMqy_kDtsZJb1-1" value="" style="edgeStyle=orthogonalEdgeStyle;rounded=0;orthogonalLoop=1;jettySize=auto;html=1;" edge="1" parent="1" source="0MJrxG6zpo3ziBz7e6kD-59" target="0MJrxG6zpo3ziBz7e6kD-67">
          <mxGeometry relative="1" as="geometry" />
        </mxCell>
        <mxCell id="1pgXUVBiMqy_kDtsZJb1-2" value="" style="edgeStyle=orthogonalEdgeStyle;rounded=0;orthogonalLoop=1;jettySize=auto;html=1;" edge="1" parent="1" source="0MJrxG6zpo3ziBz7e6kD-59" target="0MJrxG6zpo3ziBz7e6kD-67">
          <mxGeometry relative="1" as="geometry" />
        </mxCell>
        <mxCell id="1pgXUVBiMqy_kDtsZJb1-3" value="" style="edgeStyle=orthogonalEdgeStyle;rounded=0;orthogonalLoop=1;jettySize=auto;html=1;" edge="1" parent="1" source="0MJrxG6zpo3ziBz7e6kD-59" target="0MJrxG6zpo3ziBz7e6kD-67">
          <mxGeometry relative="1" as="geometry" />
        </mxCell>
        <mxCell id="0MJrxG6zpo3ziBz7e6kD-59" value="Income and Asset Statement&lt;div&gt;form processing&lt;/div&gt;" style="verticalLabelPosition=bottom;verticalAlign=top;html=1;shape=mxgraph.flowchart.parallel_mode;pointerEvents=1" parent="1" vertex="1">
          <mxGeometry x="467.5" y="390" width="95" height="40" as="geometry" />
        </mxCell>
        <mxCell id="0MJrxG6zpo3ziBz7e6kD-61" value="Confirmation Page" style="shape=document;whiteSpace=wrap;html=1;boundedLbl=1;" parent="1" vertex="1">
          <mxGeometry x="680" y="990" width="120" height="80" as="geometry" />
        </mxCell>
        <mxCell id="0MJrxG6zpo3ziBz7e6kD-65" value="" style="endArrow=classic;html=1;rounded=0;entryX=0;entryY=0.5;entryDx=0;entryDy=0;entryPerimeter=0;" parent="1" source="0MJrxG6zpo3ziBz7e6kD-1" target="0MJrxG6zpo3ziBz7e6kD-8" edge="1">
          <mxGeometry width="50" height="50" relative="1" as="geometry">
            <mxPoint x="400" y="320" as="sourcePoint" />
            <mxPoint x="450" y="270" as="targetPoint" />
          </mxGeometry>
        </mxCell>
        <mxCell id="0MJrxG6zpo3ziBz7e6kD-67" value="Claim Saved?" style="rhombus;whiteSpace=wrap;html=1;" parent="1" vertex="1">
          <mxGeometry x="465" y="537.15" width="100" height="80" as="geometry" />
        </mxCell>
        <mxCell id="0MJrxG6zpo3ziBz7e6kD-69" value="Sidekiq process&lt;br&gt;- Generate PDF" style="shape=process;whiteSpace=wrap;html=1;backgroundOutline=1;" parent="1" vertex="1">
          <mxGeometry x="432.5" y="697.15" width="165" height="40" as="geometry" />
        </mxCell>
        <mxCell id="0MJrxG6zpo3ziBz7e6kD-71" value="" style="endArrow=classic;html=1;rounded=0;exitX=0.5;exitY=1;exitDx=0;exitDy=0;entryX=0.5;entryY=0;entryDx=0;entryDy=0;" parent="1" source="0MJrxG6zpo3ziBz7e6kD-67" target="0MJrxG6zpo3ziBz7e6kD-69" edge="1">
          <mxGeometry width="50" height="50" relative="1" as="geometry">
            <mxPoint x="510" y="757.15" as="sourcePoint" />
            <mxPoint x="560" y="707.15" as="targetPoint" />
          </mxGeometry>
        </mxCell>
        <mxCell id="0MJrxG6zpo3ziBz7e6kD-72" value="Yes" style="edgeLabel;html=1;align=center;verticalAlign=middle;resizable=0;points=[];" parent="0MJrxG6zpo3ziBz7e6kD-71" vertex="1" connectable="0">
          <mxGeometry x="-0.02" y="-1" relative="1" as="geometry">
            <mxPoint as="offset" />
          </mxGeometry>
        </mxCell>
        <mxCell id="0MJrxG6zpo3ziBz7e6kD-73" value="" style="endArrow=classic;html=1;rounded=0;entryX=0;entryY=0.85;entryDx=0;entryDy=0;entryPerimeter=0;exitX=0;exitY=0;exitDx=0;exitDy=0;exitPerimeter=0;" parent="1" source="0MJrxG6zpo3ziBz7e6kD-59" target="0MJrxG6zpo3ziBz7e6kD-5" edge="1">
          <mxGeometry width="50" height="50" relative="1" as="geometry">
            <mxPoint x="310" y="380" as="sourcePoint" />
            <mxPoint x="505" y="381.42857142857156" as="targetPoint" />
            <Array as="points">
              <mxPoint x="465" y="314" />
            </Array>
          </mxGeometry>
        </mxCell>
        <mxCell id="0MJrxG6zpo3ziBz7e6kD-79" value="&lt;div&gt;&lt;br&gt;&lt;/div&gt;" style="edgeLabel;html=1;align=center;verticalAlign=middle;resizable=0;points=[];" parent="0MJrxG6zpo3ziBz7e6kD-73" vertex="1" connectable="0">
          <mxGeometry x="0.18" y="1" relative="1" as="geometry">
            <mxPoint x="110" y="67" as="offset" />
          </mxGeometry>
        </mxCell>
        <mxCell id="0MJrxG6zpo3ziBz7e6kD-96" value="Authenticated&lt;br&gt;InProgress deleted" style="edgeLabel;html=1;align=center;verticalAlign=middle;resizable=0;points=[];" parent="0MJrxG6zpo3ziBz7e6kD-73" vertex="1" connectable="0">
          <mxGeometry x="-0.2261" y="-2" relative="1" as="geometry">
            <mxPoint as="offset" />
          </mxGeometry>
        </mxCell>
        <mxCell id="0MJrxG6zpo3ziBz7e6kD-74" value="" style="endArrow=classic;html=1;rounded=0;entryX=1;entryY=0.5;entryDx=0;entryDy=0;entryPerimeter=0;exitX=0.13;exitY=0.77;exitDx=0;exitDy=0;exitPerimeter=0;" parent="1" source="0MJrxG6zpo3ziBz7e6kD-10" target="0MJrxG6zpo3ziBz7e6kD-8" edge="1">
          <mxGeometry width="50" height="50" relative="1" as="geometry">
            <mxPoint x="400" y="100" as="sourcePoint" />
            <mxPoint x="450" y="50" as="targetPoint" />
          </mxGeometry>
        </mxCell>
        <mxCell id="0MJrxG6zpo3ziBz7e6kD-75" value="Invalid" style="edgeLabel;html=1;align=center;verticalAlign=middle;resizable=0;points=[];" parent="0MJrxG6zpo3ziBz7e6kD-74" vertex="1" connectable="0">
          <mxGeometry x="0.0882" y="1" relative="1" as="geometry">
            <mxPoint as="offset" />
          </mxGeometry>
        </mxCell>
        <mxCell id="0MJrxG6zpo3ziBz7e6kD-83" value="Error log entry" style="strokeWidth=2;html=1;shape=mxgraph.flowchart.terminator;whiteSpace=wrap;" parent="1" vertex="1">
          <mxGeometry x="325" y="590" width="100" height="60" as="geometry" />
        </mxCell>
        <mxCell id="0MJrxG6zpo3ziBz7e6kD-84" value="" style="endArrow=classic;html=1;rounded=0;entryX=0.89;entryY=0.89;entryDx=0;entryDy=0;entryPerimeter=0;exitX=0;exitY=0;exitDx=0;exitDy=0;" parent="1" source="0MJrxG6zpo3ziBz7e6kD-69" target="0MJrxG6zpo3ziBz7e6kD-83" edge="1">
          <mxGeometry width="50" height="50" relative="1" as="geometry">
            <mxPoint x="510" y="687.15" as="sourcePoint" />
            <mxPoint x="660" y="687.15" as="targetPoint" />
          </mxGeometry>
        </mxCell>
        <mxCell id="0MJrxG6zpo3ziBz7e6kD-85" value="Error" style="edgeLabel;html=1;align=center;verticalAlign=middle;resizable=0;points=[];" parent="0MJrxG6zpo3ziBz7e6kD-84" vertex="1" connectable="0">
          <mxGeometry x="-0.0439" y="-3" relative="1" as="geometry">
            <mxPoint as="offset" />
          </mxGeometry>
        </mxCell>
        <mxCell id="0MJrxG6zpo3ziBz7e6kD-86" value="" style="endArrow=classic;html=1;rounded=0;entryX=0.5;entryY=0;entryDx=0;entryDy=0;" parent="1" target="0MJrxG6zpo3ziBz7e6kD-88" edge="1">
          <mxGeometry width="50" height="50" relative="1" as="geometry">
            <mxPoint x="510" y="737.15" as="sourcePoint" />
            <mxPoint x="520" y="827.15" as="targetPoint" />
          </mxGeometry>
        </mxCell>
        <mxCell id="0MJrxG6zpo3ziBz7e6kD-87" value="Completed" style="edgeLabel;html=1;align=center;verticalAlign=middle;resizable=0;points=[];" parent="0MJrxG6zpo3ziBz7e6kD-86" vertex="1" connectable="0">
          <mxGeometry x="-0.0927" y="-2" relative="1" as="geometry">
            <mxPoint as="offset" />
          </mxGeometry>
        </mxCell>
        <mxCell id="0MJrxG6zpo3ziBz7e6kD-88" value="Sidekiq process&lt;br&gt;- Send PDF to Lighthouse API" style="shape=process;whiteSpace=wrap;html=1;backgroundOutline=1;" parent="1" vertex="1">
          <mxGeometry x="430" y="797.15" width="165" height="50" as="geometry" />
        </mxCell>
        <mxCell id="0MJrxG6zpo3ziBz7e6kD-102" value="" style="endArrow=classic;html=1;rounded=0;entryX=0.5;entryY=1;entryDx=0;entryDy=0;entryPerimeter=0;exitX=1;exitY=0.5;exitDx=0;exitDy=0;" parent="1" source="0MJrxG6zpo3ziBz7e6kD-88" target="0MJrxG6zpo3ziBz7e6kD-5" edge="1">
          <mxGeometry width="50" height="50" relative="1" as="geometry">
            <mxPoint x="645" y="830" as="sourcePoint" />
            <mxPoint x="750" y="340" as="targetPoint" />
            <Array as="points">
              <mxPoint x="670" y="822" />
            </Array>
          </mxGeometry>
        </mxCell>
        <mxCell id="0MJrxG6zpo3ziBz7e6kD-103" value="&lt;div&gt;Create/Update&lt;/div&gt;&lt;div&gt;Submission Attempt&lt;/div&gt;" style="edgeLabel;html=1;align=center;verticalAlign=middle;resizable=0;points=[];" parent="0MJrxG6zpo3ziBz7e6kD-102" vertex="1" connectable="0">
          <mxGeometry x="-0.0247" relative="1" as="geometry">
            <mxPoint as="offset" />
          </mxGeometry>
        </mxCell>
        <mxCell id="0MJrxG6zpo3ziBz7e6kD-104" value="" style="endArrow=classic;html=1;rounded=0;entryX=0.5;entryY=1;entryDx=0;entryDy=0;entryPerimeter=0;exitX=0;exitY=0;exitDx=0;exitDy=0;" parent="1" source="0MJrxG6zpo3ziBz7e6kD-88" target="0MJrxG6zpo3ziBz7e6kD-83" edge="1">
          <mxGeometry width="50" height="50" relative="1" as="geometry">
            <mxPoint x="443" y="707" as="sourcePoint" />
            <mxPoint x="424" y="653" as="targetPoint" />
          </mxGeometry>
        </mxCell>
        <mxCell id="0MJrxG6zpo3ziBz7e6kD-105" value="Error" style="edgeLabel;html=1;align=center;verticalAlign=middle;resizable=0;points=[];" parent="0MJrxG6zpo3ziBz7e6kD-104" vertex="1" connectable="0">
          <mxGeometry x="-0.0439" y="-3" relative="1" as="geometry">
            <mxPoint as="offset" />
          </mxGeometry>
        </mxCell>
        <mxCell id="0MJrxG6zpo3ziBz7e6kD-107" value="form submission polling" style="shape=process;whiteSpace=wrap;html=1;backgroundOutline=1;" parent="1" vertex="1">
          <mxGeometry x="240" y="980" width="120" height="60" as="geometry" />
        </mxCell>
        <mxCell id="0MJrxG6zpo3ziBz7e6kD-108" value="" style="endArrow=classic;html=1;rounded=0;exitX=0;exitY=1;exitDx=0;exitDy=0;exitPerimeter=0;entryX=0.5;entryY=0;entryDx=0;entryDy=0;" parent="1" source="0MJrxG6zpo3ziBz7e6kD-59" target="0MJrxG6zpo3ziBz7e6kD-107" edge="1">
          <mxGeometry width="50" height="50" relative="1" as="geometry">
            <mxPoint x="400" y="1030" as="sourcePoint" />
            <mxPoint x="150" y="1040" as="targetPoint" />
            <Array as="points">
              <mxPoint x="310" y="490" />
            </Array>
          </mxGeometry>
        </mxCell>
        <mxCell id="0MJrxG6zpo3ziBz7e6kD-110" value="POST return" style="edgeLabel;html=1;align=center;verticalAlign=middle;resizable=0;points=[];" parent="0MJrxG6zpo3ziBz7e6kD-108" vertex="1" connectable="0">
          <mxGeometry x="0.0966" y="-2" relative="1" as="geometry">
            <mxPoint as="offset" />
          </mxGeometry>
        </mxCell>
        <mxCell id="0MJrxG6zpo3ziBz7e6kD-111" value="" style="endArrow=classic;startArrow=classic;html=1;rounded=0;exitX=1;exitY=0;exitDx=0;exitDy=0;entryX=1;entryY=0.85;entryDx=0;entryDy=0;entryPerimeter=0;" parent="1" source="0MJrxG6zpo3ziBz7e6kD-107" target="0MJrxG6zpo3ziBz7e6kD-5" edge="1">
          <mxGeometry width="50" height="50" relative="1" as="geometry">
            <mxPoint x="400" y="900" as="sourcePoint" />
            <mxPoint x="450" y="850" as="targetPoint" />
            <Array as="points">
              <mxPoint x="720" y="860" />
            </Array>
          </mxGeometry>
        </mxCell>
        <mxCell id="0MJrxG6zpo3ziBz7e6kD-112" value="SELECT&lt;br&gt;Submission Attempt" style="edgeLabel;html=1;align=center;verticalAlign=middle;resizable=0;points=[];" parent="0MJrxG6zpo3ziBz7e6kD-111" vertex="1" connectable="0">
          <mxGeometry x="0.0637" y="1" relative="1" as="geometry">
            <mxPoint as="offset" />
          </mxGeometry>
        </mxCell>
        <mxCell id="0MJrxG6zpo3ziBz7e6kD-115" value="" style="endArrow=classic;html=1;rounded=0;entryX=0;entryY=0.5;entryDx=0;entryDy=0;exitX=1;exitY=0.75;exitDx=0;exitDy=0;" parent="1" source="0MJrxG6zpo3ziBz7e6kD-107" target="0MJrxG6zpo3ziBz7e6kD-61" edge="1">
          <mxGeometry width="50" height="50" relative="1" as="geometry">
            <mxPoint x="400" y="930" as="sourcePoint" />
            <mxPoint x="450" y="880" as="targetPoint" />
          </mxGeometry>
        </mxCell>
        <mxCell id="0MJrxG6zpo3ziBz7e6kD-116" value="Submission complete" style="edgeLabel;html=1;align=center;verticalAlign=middle;resizable=0;points=[];" parent="0MJrxG6zpo3ziBz7e6kD-115" vertex="1" connectable="0">
          <mxGeometry x="-0.1126" y="1" relative="1" as="geometry">
            <mxPoint as="offset" />
          </mxGeometry>
        </mxCell>
      </root>
    </mxGraphModel>
  </diagram>
</mxfile>
